<svg xmlns="http://www.w3.org/2000/svg" viewBox="0 0 892 236.08"><defs><style>.cls-1{fill:#3861ad;}</style></defs><title>アセット 1</title><g id="レイヤー_2" data-name="レイヤー 2"><g id="レイヤー_3" data-name="レイヤー 3"><path class="cls-1" d="M87,56.13a98.85,98.85,0,0,0-22.19,4.09A88.5,88.5,0,0,0,46.11,68L44.87,58.6H0V176.1H46.6V99.75q6.69-3.22,18.34-5.7A162,162,0,0,1,87,90.83Z"/><path class="cls-1" d="M191.36,70.75Q175,56.13,146.49,56.13q-31,0-47.1,16.36T83.28,117.6q0,29.5,19,45.24t50.69,15.74q31,0,48.34-8.18v-28a76.23,76.23,0,0,1-16.73,4.46,121.21,121.21,0,0,1-20.2,1.73q-16.61,0-25.9-4.09a21.17,21.17,0,0,1-12.27-13.26h81.55V110.66Q207.71,85.37,191.36,70.75Zm-23.8,35.2H126.17q0-10.16,5.08-15.12t16.73-5q19.58,0,19.58,15.86Z"/><path class="cls-1" d="M346.65,200.14q-2.11-2.23-2.11-8.18V58.6h-40.4L301.66,68a54.66,54.66,0,0,0-15.74-8.92,56.87,56.87,0,0,0-19.21-3q-26,0-40.65,15.86t-14.62,46.85q0,30.74,14.75,45.24t42,14.5a75.36,75.36,0,0,0,16.11-1.73,48.75,48.75,0,0,0,13.63-5v25.53q0,19.83,9.67,29.25t30.24,9.42A84,84,0,0,0,353.09,235a66.82,66.82,0,0,0,12.52-3.84V200.39a32.45,32.45,0,0,1-11.15,2Q348.75,202.37,346.65,200.14Zm-48.71-61.47a26.7,26.7,0,0,1-8.06,4.46,30.93,30.93,0,0,1-10,1.49q-10.66,0-15.74-5.95T259,118.09q0-14.37,5.2-21.19t15.86-6.82a27,27,0,0,1,9.67,1.61A25.31,25.31,0,0,1,297.94,97Z"/><path class="cls-1" d="M604.15,67.9q-16-11.77-44.74-11.77a164,164,0,0,0-27,2.23,107.89,107.89,0,0,0-22.56,5.95v28A134,134,0,0,1,550,86.12q14.13,0,20,3.22a10.81,10.81,0,0,1,5.83,10.16v2.23H545.28q-24.79,0-37.31,10.16t-12.52,29q0,18.59,11.77,28.13t29.87,9.54q26.77,0,40.15-11.9l2.23,9.42h40.65V103.72Q620.14,79.68,604.15,67.9Zm-28.38,74q-8.68,9.42-22.8,9.42-15.12,0-15.12-11.9,0-6.19,3.72-9.17t11.65-3h22.56Z"/><path class="cls-1" d="M686.54,138.17q-7.69-6.44-7.68-20.82,0-14.87,7.81-21.07t24.17-6.2q18.59,0,33.22,6.94V64.3A78.49,78.49,0,0,0,724.34,58a134.27,134.27,0,0,0-23.67-1.86q-32.23,0-50.81,15.49t-18.59,45.73q0,30.24,18.22,45.73t50.94,15.49q26.27,0,43.87-7.93V136.44a72,72,0,0,1-33.46,8.18Q694.22,144.62,686.54,138.17Z"/><polygon class="cls-1" points="842.42 108.18 889.27 58.6 836.47 58.6 803.75 91.57 803.75 9.03 757.15 9.03 757.15 176.1 803.75 176.1 803.75 142.14 813.42 132.47 842.42 176.1 892 176.1 842.42 108.18"/><path class="cls-1" d="M476.78,67.4Q465.5,56.13,441.46,56.13a70.12,70.12,0,0,0-19.58,2.73,59,59,0,0,0-15.74,6.87L406,38.67q0-19.83-9.67-29.25T366.1,0a84,84,0,0,0-15.24,1.12A66.82,66.82,0,0,0,338.34,5V35.69a32.45,32.45,0,0,1,11.15-2q5.71,0,7.81,2.23t2.11,8.18V66.28h0V176.1H406V99a29.14,29.14,0,0,1,9.17-6.07,26.79,26.79,0,0,1,10.66-2.35q8.42,0,11.9,3.47t3.47,11.65v70.4h46.85V102.23Q488.06,78.68,476.78,67.4Z"/></g></g></svg>